<svg width="97" height="34" viewBox="0 0 97 34" fill="none" xmlns="http://www.w3.org/2000/svg">
<rect width="97" height="34" rx="8" fill="#F3F3F7"/>
<path d="M23.089 13.3H29.084V14.477H24.497V16.369H26.774C27.698 16.369 28.3983 16.5633 28.875 16.952C29.359 17.3333 29.601 17.887 29.601 18.613C29.601 19.3757 29.337 19.966 28.809 20.384C28.281 20.7947 27.5293 21 26.554 21H23.089V13.3ZM26.477 19.9C27.027 19.9 27.445 19.7937 27.731 19.581C28.017 19.3683 28.16 19.0603 28.16 18.657C28.16 17.865 27.599 17.469 26.477 17.469H24.497V19.9H26.477ZM33.6309 21.077C33.0369 21.077 32.5015 20.9487 32.0249 20.692C31.5482 20.4353 31.1742 20.0797 30.9029 19.625C30.6389 19.163 30.5069 18.6423 30.5069 18.063C30.5069 17.4837 30.6389 16.9667 30.9029 16.512C31.1742 16.0573 31.5482 15.7017 32.0249 15.445C32.5015 15.1883 33.0369 15.06 33.6309 15.06C34.2322 15.06 34.7712 15.1883 35.2479 15.445C35.7245 15.7017 36.0949 16.0573 36.3589 16.512C36.6302 16.9667 36.7659 17.4837 36.7659 18.063C36.7659 18.6423 36.6302 19.163 36.3589 19.625C36.0949 20.0797 35.7245 20.4353 35.2479 20.692C34.7712 20.9487 34.2322 21.077 33.6309 21.077ZM33.6309 19.9C34.1369 19.9 34.5549 19.7313 34.8849 19.394C35.2149 19.0567 35.3799 18.613 35.3799 18.063C35.3799 17.513 35.2149 17.0693 34.8849 16.732C34.5549 16.3947 34.1369 16.226 33.6309 16.226C33.1249 16.226 32.7069 16.3947 32.3769 16.732C32.0542 17.0693 31.8929 17.513 31.8929 18.063C31.8929 18.613 32.0542 19.0567 32.3769 19.394C32.7069 19.7313 33.1249 19.9 33.6309 19.9ZM43.3837 15.126V21H42.0087V16.292H39.8087L39.7537 17.458C39.7171 18.2353 39.6437 18.888 39.5337 19.416C39.4311 19.9367 39.2514 20.351 38.9947 20.659C38.7454 20.9597 38.4007 21.11 37.9607 21.11C37.7554 21.11 37.5024 21.0697 37.2017 20.989L37.2677 19.834C37.3704 19.856 37.4584 19.867 37.5317 19.867C37.8104 19.867 38.0194 19.757 38.1587 19.537C38.2981 19.3097 38.3861 19.042 38.4227 18.734C38.4667 18.4187 38.5034 17.9713 38.5327 17.392L38.6317 15.126H43.3837ZM48.1835 17.062C48.9315 17.062 49.5035 17.2307 49.8995 17.568C50.3029 17.9053 50.5045 18.382 50.5045 18.998C50.5045 19.6433 50.2845 20.142 49.8445 20.494C49.4045 20.846 48.7849 21.0183 47.9855 21.011L45.2355 21V15.126H46.6105V17.051L48.1835 17.062ZM47.8645 19.999C48.2679 20.0063 48.5759 19.922 48.7885 19.746C49.0012 19.57 49.1075 19.3133 49.1075 18.976C49.1075 18.646 49.0049 18.404 48.7995 18.25C48.5942 18.096 48.2825 18.0153 47.8645 18.008L46.6105 17.997V19.988L47.8645 19.999ZM60.3701 15.126V21H51.7131V15.126H53.0881V19.834H55.3651V15.126H56.7401V19.834H58.9951V15.126H60.3701ZM64.4079 15.06C65.2733 15.06 65.9333 15.269 66.3879 15.687C66.8499 16.0977 67.0809 16.721 67.0809 17.557V21H65.7829V20.285C65.6143 20.5417 65.3723 20.7397 65.0569 20.879C64.7489 21.011 64.3749 21.077 63.9349 21.077C63.4949 21.077 63.1099 21.0037 62.7799 20.857C62.4499 20.703 62.1933 20.494 62.0099 20.23C61.8339 19.9587 61.7459 19.6543 61.7459 19.317C61.7459 18.789 61.9403 18.3673 62.3289 18.052C62.7249 17.7293 63.3446 17.568 64.1879 17.568H65.7059V17.48C65.7059 17.0693 65.5813 16.754 65.3319 16.534C65.0899 16.314 64.7269 16.204 64.2429 16.204C63.9129 16.204 63.5866 16.2553 63.2639 16.358C62.9486 16.4607 62.6809 16.6037 62.4609 16.787L61.9219 15.786C62.2299 15.5513 62.6003 15.3717 63.0329 15.247C63.4656 15.1223 63.9239 15.06 64.4079 15.06ZM64.2209 20.076C64.5656 20.076 64.8699 19.999 65.1339 19.845C65.4053 19.6837 65.5959 19.4563 65.7059 19.163V18.481H64.2869C63.4949 18.481 63.0989 18.7413 63.0989 19.262C63.0989 19.5113 63.1979 19.7093 63.3959 19.856C63.5939 20.0027 63.8689 20.076 64.2209 20.076ZM73.7434 15.126V21H72.5114V19.229H70.9604L69.7614 21H68.2874L69.6734 19.042C69.2481 18.8953 68.9217 18.6717 68.6944 18.371C68.4744 18.063 68.3644 17.6853 68.3644 17.238C68.3644 16.5633 68.6027 16.0427 69.0794 15.676C69.5561 15.3093 70.2124 15.126 71.0484 15.126H73.7434ZM71.0924 16.281C70.2051 16.281 69.7614 16.6147 69.7614 17.282C69.7614 17.942 70.1904 18.272 71.0484 18.272H72.5114V16.281H71.0924Z" fill="#828792"/>
</svg>
