<svg width="98" height="34" viewBox="0 0 98 34" fill="none" xmlns="http://www.w3.org/2000/svg">
<rect width="98" height="34" rx="8" fill="#F3F3F7"/>
<path d="M27.62 21.11C26.8427 21.11 26.1387 20.9413 25.508 20.604C24.8847 20.2593 24.3933 19.7863 24.034 19.185C23.682 18.5837 23.506 17.9053 23.506 17.15C23.506 16.3947 23.6857 15.7163 24.045 15.115C24.4043 14.5137 24.8957 14.0443 25.519 13.707C26.1497 13.3623 26.8537 13.19 27.631 13.19C28.2617 13.19 28.8373 13.3 29.358 13.52C29.8787 13.74 30.3187 14.059 30.678 14.477L29.754 15.346C29.1967 14.7447 28.511 14.444 27.697 14.444C27.169 14.444 26.696 14.5613 26.278 14.796C25.86 15.0233 25.5337 15.3423 25.299 15.753C25.0643 16.1637 24.947 16.6293 24.947 17.15C24.947 17.6707 25.0643 18.1363 25.299 18.547C25.5337 18.9577 25.86 19.2803 26.278 19.515C26.696 19.7423 27.169 19.856 27.697 19.856C28.511 19.856 29.1967 19.5517 29.754 18.943L30.678 19.823C30.3187 20.241 29.875 20.56 29.347 20.78C28.8263 21 28.2507 21.11 27.62 21.11ZM35.1077 15.06C35.6797 15.06 36.1894 15.1847 36.6367 15.434C37.0914 15.6833 37.4471 16.0353 37.7037 16.49C37.9604 16.9447 38.0887 17.469 38.0887 18.063C38.0887 18.657 37.9604 19.185 37.7037 19.647C37.4471 20.1017 37.0914 20.4537 36.6367 20.703C36.1894 20.9523 35.6797 21.077 35.1077 21.077C34.3157 21.077 33.6887 20.813 33.2267 20.285V23.134H31.8517V15.126H33.1607V15.896C33.3881 15.6173 33.6667 15.4083 33.9967 15.269C34.3341 15.1297 34.7044 15.06 35.1077 15.06ZM34.9537 19.9C35.4597 19.9 35.8741 19.7313 36.1967 19.394C36.5267 19.0567 36.6917 18.613 36.6917 18.063C36.6917 17.513 36.5267 17.0693 36.1967 16.732C35.8741 16.3947 35.4597 16.226 34.9537 16.226C34.6237 16.226 34.3267 16.303 34.0627 16.457C33.7987 16.6037 33.5897 16.8163 33.4357 17.095C33.2817 17.3737 33.2047 17.6963 33.2047 18.063C33.2047 18.4297 33.2817 18.7523 33.4357 19.031C33.5897 19.3097 33.7987 19.526 34.0627 19.68C34.3267 19.8267 34.6237 19.9 34.9537 19.9ZM44.9572 18.096C44.9572 18.1913 44.9499 18.327 44.9352 18.503H40.3262C40.4069 18.9357 40.6159 19.2803 40.9532 19.537C41.2979 19.7863 41.7232 19.911 42.2292 19.911C42.8745 19.911 43.4062 19.6983 43.8242 19.273L44.5612 20.12C44.2972 20.4353 43.9635 20.6737 43.5602 20.835C43.1569 20.9963 42.7022 21.077 42.1962 21.077C41.5509 21.077 40.9825 20.9487 40.4912 20.692C39.9999 20.4353 39.6185 20.0797 39.3472 19.625C39.0832 19.163 38.9512 18.6423 38.9512 18.063C38.9512 17.491 39.0795 16.9777 39.3362 16.523C39.6002 16.061 39.9632 15.7017 40.4252 15.445C40.8872 15.1883 41.4079 15.06 41.9872 15.06C42.5592 15.06 43.0689 15.1883 43.5162 15.445C43.9709 15.6943 44.3229 16.05 44.5722 16.512C44.8289 16.9667 44.9572 17.4947 44.9572 18.096ZM41.9872 16.16C41.5472 16.16 41.1732 16.292 40.8652 16.556C40.5645 16.8127 40.3812 17.1573 40.3152 17.59H43.6482C43.5895 17.1647 43.4099 16.82 43.1092 16.556C42.8085 16.292 42.4345 16.16 41.9872 16.16ZM52.6559 19.834V22.309H51.3689V21H46.8369V22.309H45.5609V19.834H45.8359C46.2099 19.8193 46.4629 19.581 46.5949 19.119C46.7342 18.6497 46.8259 17.9897 46.8699 17.139L46.9469 15.126H51.7869V19.834H52.6559ZM48.1239 17.238C48.0946 17.9127 48.0396 18.4627 47.9589 18.888C47.8782 19.3133 47.7316 19.6287 47.5189 19.834H50.4119V16.292H48.1569L48.1239 17.238ZM53.884 15.126H55.259V17.513H58.218V15.126H59.593V21H58.218V18.679H55.259V21H53.884V15.126ZM66.3967 15.126V21H65.1647V19.229H63.6137L62.4147 21H60.9407L62.3267 19.042C61.9014 18.8953 61.5751 18.6717 61.3477 18.371C61.1277 18.063 61.0177 17.6853 61.0177 17.238C61.0177 16.5633 61.2561 16.0427 61.7327 15.676C62.2094 15.3093 62.8657 15.126 63.7017 15.126H66.3967ZM63.7457 16.281C62.8584 16.281 62.4147 16.6147 62.4147 17.282C62.4147 17.942 62.8437 18.272 63.7017 18.272H65.1647V16.281H63.7457ZM73.2073 15.126V21H71.9753V19.229H70.4243L69.2253 21H67.7513L69.1373 19.042C68.7119 18.8953 68.3856 18.6717 68.1583 18.371C67.9383 18.063 67.8283 17.6853 67.8283 17.238C67.8283 16.5633 68.0666 16.0427 68.5433 15.676C69.0199 15.3093 69.6763 15.126 70.5123 15.126H73.2073ZM70.5563 16.281C69.6689 16.281 69.2253 16.6147 69.2253 17.282C69.2253 17.942 69.6543 18.272 70.5123 18.272H71.9753V16.281H70.5563Z" fill="#828792"/>
</svg>
