<svg width="110" height="34" viewBox="0 0 110 34" fill="none" xmlns="http://www.w3.org/2000/svg">
<rect opacity="0.9" width="110" height="34" rx="8" fill="#FF2E65"/>
<path d="M29.964 21L29.953 16.391L27.687 20.186H26.895L24.629 16.479V21H22.957V13.3H24.431L27.313 18.085L30.151 13.3H31.625L31.636 21H29.964ZM35.7158 14.994C36.6325 14.994 37.3365 15.214 37.8278 15.654C38.3191 16.0867 38.5648 16.743 38.5648 17.623V21H36.9588V20.263C36.6361 20.813 36.0348 21.088 35.1548 21.088C34.7001 21.088 34.3041 21.011 33.9668 20.857C33.6368 20.703 33.3838 20.4903 33.2078 20.219C33.0318 19.9477 32.9438 19.6397 32.9438 19.295C32.9438 18.745 33.1491 18.3123 33.5598 17.997C33.9778 17.6817 34.6195 17.524 35.4848 17.524H36.8488C36.8488 17.15 36.7351 16.864 36.5078 16.666C36.2805 16.4607 35.9395 16.358 35.4848 16.358C35.1695 16.358 34.8578 16.4093 34.5498 16.512C34.2491 16.6073 33.9925 16.7393 33.7798 16.908L33.1638 15.709C33.4865 15.4817 33.8715 15.3057 34.3188 15.181C34.7735 15.0563 35.2391 14.994 35.7158 14.994ZM35.5838 19.933C35.8771 19.933 36.1375 19.867 36.3648 19.735C36.5921 19.5957 36.7535 19.394 36.8488 19.13V18.525H35.6718C34.9678 18.525 34.6158 18.756 34.6158 19.218C34.6158 19.438 34.7001 19.614 34.8688 19.746C35.0448 19.8707 35.2831 19.933 35.5838 19.933ZM45.7315 15.082V21H44.0155V16.49H42.1455L42.0905 17.535C42.0611 18.3123 41.9878 18.9577 41.8705 19.471C41.7531 19.9843 41.5625 20.3877 41.2985 20.681C41.0345 20.9743 40.6678 21.121 40.1985 21.121C39.9491 21.121 39.6521 21.077 39.3075 20.989L39.3955 19.581C39.5128 19.5957 39.5971 19.603 39.6485 19.603C39.9051 19.603 40.0958 19.5113 40.2205 19.328C40.3525 19.1373 40.4405 18.899 40.4845 18.613C40.5285 18.3197 40.5615 17.9347 40.5835 17.458L40.6715 15.082H45.7315ZM53.1346 18.063C53.1346 18.085 53.1236 18.239 53.1016 18.525H48.6246C48.7053 18.8917 48.896 19.1813 49.1966 19.394C49.4973 19.6067 49.8713 19.713 50.3186 19.713C50.6266 19.713 50.898 19.669 51.1326 19.581C51.3746 19.4857 51.5983 19.339 51.8036 19.141L52.7166 20.131C52.1593 20.769 51.3453 21.088 50.2746 21.088C49.6073 21.088 49.017 20.9597 48.5036 20.703C47.9903 20.439 47.5943 20.076 47.3156 19.614C47.037 19.152 46.8976 18.6277 46.8976 18.041C46.8976 17.4617 47.0333 16.941 47.3046 16.479C47.5833 16.0097 47.961 15.6467 48.4376 15.39C48.9216 15.126 49.4606 14.994 50.0546 14.994C50.634 14.994 51.1583 15.1187 51.6276 15.368C52.097 15.6173 52.4636 15.9767 52.7276 16.446C52.999 16.908 53.1346 17.447 53.1346 18.063ZM50.0656 16.292C49.677 16.292 49.3506 16.402 49.0866 16.622C48.8226 16.842 48.6613 17.1427 48.6026 17.524H51.5176C51.459 17.15 51.2976 16.853 51.0336 16.633C50.7696 16.4057 50.447 16.292 50.0656 16.292ZM54.45 15.082H56.155V17.392H58.729V15.082H60.445V21H58.729V18.789H56.155V21H54.45V15.082ZM65.2887 16.974C66.0587 16.9813 66.649 17.1573 67.0597 17.502C67.4704 17.8393 67.6757 18.3197 67.6757 18.943C67.6757 19.5957 67.4447 20.1053 66.9827 20.472C66.528 20.8313 65.8864 21.011 65.0577 21.011L62.0877 21V15.082H63.7927V16.974H65.2887ZM64.9037 19.79C65.2337 19.7973 65.4867 19.7277 65.6627 19.581C65.8387 19.4343 65.9267 19.2143 65.9267 18.921C65.9267 18.635 65.8387 18.426 65.6627 18.294C65.494 18.162 65.241 18.0923 64.9037 18.085L63.7927 18.074V19.79H64.9037ZM71.3549 18.756H70.4639V21H68.7479V15.082H70.4639V17.381H71.3879L72.9939 15.082H74.8199L72.7519 17.92L74.9629 21H72.9389L71.3549 18.756ZM77.997 14.994C78.9137 14.994 79.6177 15.214 80.109 15.654C80.6004 16.0867 80.846 16.743 80.846 17.623V21H79.24V20.263C78.9174 20.813 78.316 21.088 77.436 21.088C76.9814 21.088 76.5854 21.011 76.248 20.857C75.918 20.703 75.665 20.4903 75.489 20.219C75.313 19.9477 75.225 19.6397 75.225 19.295C75.225 18.745 75.4304 18.3123 75.841 17.997C76.259 17.6817 76.9007 17.524 77.766 17.524H79.13C79.13 17.15 79.0164 16.864 78.789 16.666C78.5617 16.4607 78.2207 16.358 77.766 16.358C77.4507 16.358 77.139 16.4093 76.831 16.512C76.5304 16.6073 76.2737 16.7393 76.061 16.908L75.445 15.709C75.7677 15.4817 76.1527 15.3057 76.6 15.181C77.0547 15.0563 77.5204 14.994 77.997 14.994ZM77.865 19.933C78.1584 19.933 78.4187 19.867 78.646 19.735C78.8734 19.5957 79.0347 19.394 79.13 19.13V18.525H77.953C77.249 18.525 76.897 18.756 76.897 19.218C76.897 19.438 76.9814 19.614 77.15 19.746C77.326 19.8707 77.5644 19.933 77.865 19.933ZM87.5947 15.082V21H86.0657V19.306H84.8007L83.6787 21H81.8527L83.2057 19.064C82.7951 18.9027 82.4797 18.6717 82.2597 18.371C82.0471 18.063 81.9407 17.6927 81.9407 17.26C81.9407 16.5633 82.1901 16.028 82.6887 15.654C83.1947 15.2727 83.8877 15.082 84.7677 15.082H87.5947ZM84.8007 16.479C84.4341 16.479 84.1554 16.545 83.9647 16.677C83.7814 16.809 83.6897 17.0217 83.6897 17.315C83.6897 17.6083 83.7777 17.8247 83.9537 17.964C84.1371 18.096 84.4121 18.162 84.7787 18.162H86.0657V16.479H84.8007Z" fill="white"/>
</svg>
