<svg width="435" height="68" viewBox="0 0 435 68" fill="none" xmlns="http://www.w3.org/2000/svg">
<circle cx="32" cy="22" r="18" fill="#FF2E65"/>
<path d="M33.635 16.5V27H31.205V18.45H29.105V16.5H33.635Z" fill="white"/>
<path d="M4.984 54.87H3.164V59H1.372V49.2H3.164V53.302H5.04L7.854 49.2H9.786L6.44 53.946L9.912 59H7.854L4.984 54.87ZM14.1877 59.098C13.4317 59.098 12.7504 58.9347 12.1437 58.608C11.537 58.2813 11.061 57.8287 10.7157 57.25C10.3797 56.662 10.2117 55.9993 10.2117 55.262C10.2117 54.5247 10.3797 53.8667 10.7157 53.288C11.061 52.7093 11.537 52.2567 12.1437 51.93C12.7504 51.6033 13.4317 51.44 14.1877 51.44C14.953 51.44 15.639 51.6033 16.2457 51.93C16.8524 52.2567 17.3237 52.7093 17.6597 53.288C18.005 53.8667 18.1777 54.5247 18.1777 55.262C18.1777 55.9993 18.005 56.662 17.6597 57.25C17.3237 57.8287 16.8524 58.2813 16.2457 58.608C15.639 58.9347 14.953 59.098 14.1877 59.098ZM14.1877 57.6C14.8317 57.6 15.3637 57.3853 15.7837 56.956C16.2037 56.5267 16.4137 55.962 16.4137 55.262C16.4137 54.562 16.2037 53.9973 15.7837 53.568C15.3637 53.1387 14.8317 52.924 14.1877 52.924C13.5437 52.924 13.0117 53.1387 12.5917 53.568C12.181 53.9973 11.9757 54.562 11.9757 55.262C11.9757 55.962 12.181 56.5267 12.5917 56.956C13.0117 57.3853 13.5437 57.6 14.1877 57.6ZM24.0505 51.44C24.7785 51.44 25.4271 51.5987 25.9965 51.916C26.5751 52.2333 27.0278 52.6813 27.3545 53.26C27.6811 53.8387 27.8445 54.506 27.8445 55.262C27.8445 56.018 27.6811 56.69 27.3545 57.278C27.0278 57.8567 26.5751 58.3047 25.9965 58.622C25.4271 58.9393 24.7785 59.098 24.0505 59.098C23.0425 59.098 22.2445 58.762 21.6565 58.09V61.716H19.9065V51.524H21.5725V52.504C21.8618 52.1493 22.2165 51.8833 22.6365 51.706C23.0658 51.5287 23.5371 51.44 24.0505 51.44ZM23.8545 57.6C24.4985 57.6 25.0258 57.3853 25.4365 56.956C25.8565 56.5267 26.0665 55.962 26.0665 55.262C26.0665 54.562 25.8565 53.9973 25.4365 53.568C25.0258 53.1387 24.4985 52.924 23.8545 52.924C23.4345 52.924 23.0565 53.022 22.7205 53.218C22.3845 53.4047 22.1185 53.6753 21.9225 54.03C21.7265 54.3847 21.6285 54.7953 21.6285 55.262C21.6285 55.7287 21.7265 56.1393 21.9225 56.494C22.1185 56.8487 22.3845 57.124 22.7205 57.32C23.0565 57.5067 23.4345 57.6 23.8545 57.6ZM33.9428 55.108C34.4094 55.2387 34.7688 55.4533 35.0208 55.752C35.2821 56.0413 35.4128 56.3913 35.4128 56.802C35.4128 57.2593 35.2588 57.6653 34.9508 58.02C34.6428 58.3653 34.2181 58.636 33.6768 58.832C33.1354 59.028 32.5194 59.126 31.8288 59.126C31.2501 59.126 30.6854 59.0607 30.1348 58.93C29.5841 58.79 29.0848 58.594 28.6368 58.342L29.1408 57.04C29.5048 57.2453 29.9154 57.404 30.3728 57.516C30.8301 57.628 31.2874 57.684 31.7448 57.684C32.3328 57.684 32.7901 57.5953 33.1168 57.418C33.4528 57.2313 33.6208 56.9793 33.6208 56.662C33.6208 56.3727 33.4901 56.1487 33.2288 55.99C32.9768 55.8313 32.6174 55.752 32.1508 55.752H30.6948V54.576H32.0108C32.4494 54.576 32.7901 54.5013 33.0328 54.352C33.2848 54.2027 33.4108 53.9927 33.4108 53.722C33.4108 53.4513 33.2614 53.2367 32.9628 53.078C32.6641 52.9193 32.2534 52.84 31.7308 52.84C30.9841 52.84 30.1954 53.022 29.3648 53.386L28.9168 52.098C29.8968 51.6407 30.8861 51.412 31.8848 51.412C32.5194 51.412 33.0888 51.5007 33.5928 51.678C34.0968 51.846 34.4888 52.0887 34.7688 52.406C35.0581 52.714 35.2028 53.0687 35.2028 53.47C35.2028 53.834 35.0908 54.1607 34.8668 54.45C34.6428 54.73 34.3348 54.9493 33.9428 55.108ZM37.2287 51.524H38.9787V56.452L43.1087 51.524H44.7047V59H42.9547V54.072L38.8387 59H37.2287V51.524ZM47.0588 51.524H48.8088V54.562H52.5748V51.524H54.3248V59H52.5748V56.046H48.8088V59H47.0588V51.524ZM59.4561 51.44C60.5575 51.44 61.3975 51.706 61.9761 52.238C62.5641 52.7607 62.8581 53.554 62.8581 54.618V59H61.2061V58.09C60.9915 58.4167 60.6835 58.6687 60.2821 58.846C59.8901 59.014 59.4141 59.098 58.8541 59.098C58.2941 59.098 57.8041 59.0047 57.3841 58.818C56.9641 58.622 56.6375 58.356 56.4041 58.02C56.1801 57.6747 56.0681 57.2873 56.0681 56.858C56.0681 56.186 56.3155 55.6493 56.8101 55.248C57.3141 54.8373 58.1028 54.632 59.1761 54.632H61.1081V54.52C61.1081 53.9973 60.9495 53.596 60.6321 53.316C60.3241 53.036 59.8621 52.896 59.2461 52.896C58.8261 52.896 58.4108 52.9613 58.0001 53.092C57.5988 53.2227 57.2581 53.4047 56.9781 53.638L56.2921 52.364C56.6841 52.0653 57.1555 51.8367 57.7061 51.678C58.2568 51.5193 58.8401 51.44 59.4561 51.44ZM59.2181 57.824C59.6568 57.824 60.0441 57.726 60.3801 57.53C60.7255 57.3247 60.9681 57.0353 61.1081 56.662V55.794H59.3021C58.2941 55.794 57.7901 56.1253 57.7901 56.788C57.7901 57.1053 57.9161 57.3573 58.1681 57.544C58.4201 57.7307 58.7701 57.824 59.2181 57.824Z" fill="#0E0C0D" fill-opacity="0.8"/>
<g opacity="0.6">
<circle cx="208" cy="18" r="17" stroke="#FF2E65" stroke-width="2"/>
<path d="M212.43 21.02V23H204.495V21.425L208.545 17.6C208.975 17.19 209.265 16.84 209.415 16.55C209.565 16.25 209.64 15.955 209.64 15.665C209.64 15.245 209.495 14.925 209.205 14.705C208.925 14.475 208.51 14.36 207.96 14.36C207.5 14.36 207.085 14.45 206.715 14.63C206.345 14.8 206.035 15.06 205.785 15.41L204.015 14.27C204.425 13.66 204.99 13.185 205.71 12.845C206.43 12.495 207.255 12.32 208.185 12.32C208.965 12.32 209.645 12.45 210.225 12.71C210.815 12.96 211.27 13.32 211.59 13.79C211.92 14.25 212.085 14.795 212.085 15.425C212.085 15.995 211.965 16.53 211.725 17.03C211.485 17.53 211.02 18.1 210.33 18.74L207.915 21.02H212.43Z" fill="#FF2E65"/>
</g>
<path opacity="0.6" d="M137.908 55.14C136.909 55.14 136.009 54.9253 135.206 54.496C134.403 54.0573 133.773 53.4553 133.316 52.69C132.859 51.9153 132.63 51.052 132.63 50.1C132.63 49.148 132.859 48.2893 133.316 47.524C133.773 46.7493 134.403 46.1473 135.206 45.718C136.009 45.2793 136.909 45.06 137.908 45.06C138.907 45.06 139.807 45.2793 140.61 45.718C141.413 46.1473 142.043 46.7447 142.5 47.51C142.957 48.2753 143.186 49.1387 143.186 50.1C143.186 51.0613 142.957 51.9247 142.5 52.69C142.043 53.4553 141.413 54.0573 140.61 54.496C139.807 54.9253 138.907 55.14 137.908 55.14ZM137.908 53.544C138.561 53.544 139.149 53.3993 139.672 53.11C140.195 52.8113 140.605 52.4007 140.904 51.878C141.203 51.346 141.352 50.7533 141.352 50.1C141.352 49.4467 141.203 48.8587 140.904 48.336C140.605 47.804 140.195 47.3933 139.672 47.104C139.149 46.8053 138.561 46.656 137.908 46.656C137.255 46.656 136.667 46.8053 136.144 47.104C135.621 47.3933 135.211 47.804 134.912 48.336C134.613 48.8587 134.464 49.4467 134.464 50.1C134.464 50.7533 134.613 51.346 134.912 51.878C135.211 52.4007 135.621 52.8113 136.144 53.11C136.667 53.3993 137.255 53.544 137.908 53.544ZM154.886 51.248C154.886 52.4053 154.499 53.3153 153.724 53.978C152.959 54.6407 151.862 55.0187 150.434 55.112V57.716H148.782V55.126C147.354 55.0327 146.258 54.6547 145.492 53.992C144.727 53.3293 144.344 52.4147 144.344 51.248C144.344 50.0907 144.727 49.19 145.492 48.546C146.258 47.8927 147.354 47.5193 148.782 47.426V44.612H150.434V47.426C151.862 47.5193 152.959 47.8927 153.724 48.546C154.499 49.1993 154.886 50.1 154.886 51.248ZM146.066 51.248C146.066 51.9667 146.286 52.5267 146.724 52.928C147.172 53.3293 147.858 53.572 148.782 53.656V48.91C147.858 48.9847 147.172 49.218 146.724 49.61C146.286 50.002 146.066 50.548 146.066 51.248ZM150.434 53.656C152.264 53.488 153.178 52.6853 153.178 51.248C153.178 50.5387 152.95 49.9927 152.492 49.61C152.044 49.218 151.358 48.9847 150.434 48.91V53.656ZM159.914 55.098C159.158 55.098 158.477 54.9347 157.87 54.608C157.264 54.2813 156.788 53.8287 156.442 53.25C156.106 52.662 155.938 51.9993 155.938 51.262C155.938 50.5247 156.106 49.8667 156.442 49.288C156.788 48.7093 157.264 48.2567 157.87 47.93C158.477 47.6033 159.158 47.44 159.914 47.44C160.68 47.44 161.366 47.6033 161.972 47.93C162.579 48.2567 163.05 48.7093 163.386 49.288C163.732 49.8667 163.904 50.5247 163.904 51.262C163.904 51.9993 163.732 52.662 163.386 53.25C163.05 53.8287 162.579 54.2813 161.972 54.608C161.366 54.9347 160.68 55.098 159.914 55.098ZM159.914 53.6C160.558 53.6 161.09 53.3853 161.51 52.956C161.93 52.5267 162.14 51.962 162.14 51.262C162.14 50.562 161.93 49.9973 161.51 49.568C161.09 49.1387 160.558 48.924 159.914 48.924C159.27 48.924 158.738 49.1387 158.318 49.568C157.908 49.9973 157.702 50.562 157.702 51.262C157.702 51.962 157.908 52.5267 158.318 52.956C158.738 53.3853 159.27 53.6 159.914 53.6ZM169.777 47.44C170.505 47.44 171.154 47.5987 171.723 47.916C172.302 48.2333 172.754 48.6813 173.081 49.26C173.408 49.8387 173.571 50.506 173.571 51.262C173.571 52.018 173.408 52.69 173.081 53.278C172.754 53.8567 172.302 54.3047 171.723 54.622C171.154 54.9393 170.505 55.098 169.777 55.098C168.769 55.098 167.971 54.762 167.383 54.09V57.716H165.633V47.524H167.299V48.504C167.588 48.1493 167.943 47.8833 168.363 47.706C168.792 47.5287 169.264 47.44 169.777 47.44ZM169.581 53.6C170.225 53.6 170.752 53.3853 171.163 52.956C171.583 52.5267 171.793 51.962 171.793 51.262C171.793 50.562 171.583 49.9973 171.163 49.568C170.752 49.1387 170.225 48.924 169.581 48.924C169.161 48.924 168.783 49.022 168.447 49.218C168.111 49.4047 167.845 49.6753 167.649 50.03C167.453 50.3847 167.355 50.7953 167.355 51.262C167.355 51.7287 167.453 52.1393 167.649 52.494C167.845 52.8487 168.111 53.124 168.447 53.32C168.783 53.5067 169.161 53.6 169.581 53.6ZM182.663 55V50.044L180.143 54.216H179.387L176.909 50.03V55H175.313V47.524H177.147L179.807 52.2L182.593 47.524H184.231L184.245 55H182.663ZM193.368 47.524V55H191.618V49.008H188.818L188.748 50.492C188.701 51.4813 188.608 52.312 188.468 52.984C188.337 53.6467 188.109 54.174 187.782 54.566C187.465 54.9487 187.026 55.14 186.466 55.14C186.205 55.14 185.883 55.0887 185.5 54.986L185.584 53.516C185.715 53.544 185.827 53.558 185.92 53.558C186.275 53.558 186.541 53.418 186.718 53.138C186.895 52.8487 187.007 52.508 187.054 52.116C187.11 51.7147 187.157 51.1453 187.194 50.408L187.32 47.524H193.368ZM202.725 51.304C202.725 51.4253 202.715 51.598 202.697 51.822H196.831C196.933 52.3727 197.199 52.8113 197.629 53.138C198.067 53.4553 198.609 53.614 199.253 53.614C200.074 53.614 200.751 53.3433 201.283 52.802L202.221 53.88C201.885 54.2813 201.46 54.5847 200.947 54.79C200.433 54.9953 199.855 55.098 199.211 55.098C198.389 55.098 197.666 54.9347 197.041 54.608C196.415 54.2813 195.93 53.8287 195.585 53.25C195.249 52.662 195.081 51.9993 195.081 51.262C195.081 50.534 195.244 49.8807 195.571 49.302C195.907 48.714 196.369 48.2567 196.957 47.93C197.545 47.6033 198.207 47.44 198.945 47.44C199.673 47.44 200.321 47.6033 200.891 47.93C201.469 48.2473 201.917 48.7 202.235 49.288C202.561 49.8667 202.725 50.5387 202.725 51.304ZM198.945 48.84C198.385 48.84 197.909 49.008 197.517 49.344C197.134 49.6707 196.901 50.1093 196.817 50.66H201.059C200.984 50.1187 200.755 49.68 200.373 49.344C199.99 49.008 199.514 48.84 198.945 48.84ZM204.639 47.524H206.389V50.562H210.155V47.524H211.905V55H210.155V52.046H206.389V55H204.639V47.524ZM214.25 47.524H216V52.452L220.13 47.524H221.726V55H219.976V50.072L215.86 55H214.25V47.524ZM231.08 51.304C231.08 51.4253 231.071 51.598 231.052 51.822H225.186C225.289 52.3727 225.555 52.8113 225.984 53.138C226.423 53.4553 226.964 53.614 227.608 53.614C228.43 53.614 229.106 53.3433 229.638 52.802L230.576 53.88C230.24 54.2813 229.816 54.5847 229.302 54.79C228.789 54.9953 228.21 55.098 227.566 55.098C226.745 55.098 226.022 54.9347 225.396 54.608C224.771 54.2813 224.286 53.8287 223.94 53.25C223.604 52.662 223.436 51.9993 223.436 51.262C223.436 50.534 223.6 49.8807 223.926 49.302C224.262 48.714 224.724 48.2567 225.312 47.93C225.9 47.6033 226.563 47.44 227.3 47.44C228.028 47.44 228.677 47.6033 229.246 47.93C229.825 48.2473 230.273 48.7 230.59 49.288C230.917 49.8667 231.08 50.5387 231.08 51.304ZM227.3 48.84C226.74 48.84 226.264 49.008 225.872 49.344C225.49 49.6707 225.256 50.1093 225.172 50.66H229.414C229.34 50.1187 229.111 49.68 228.728 49.344C228.346 49.008 227.87 48.84 227.3 48.84ZM241.33 51.108C241.796 51.2387 242.156 51.4533 242.408 51.752C242.669 52.0413 242.8 52.3913 242.8 52.802C242.8 53.2593 242.646 53.6653 242.338 54.02C242.03 54.3653 241.605 54.636 241.064 54.832C240.522 55.028 239.906 55.126 239.216 55.126C238.637 55.126 238.072 55.0607 237.522 54.93C236.971 54.79 236.472 54.594 236.024 54.342L236.528 53.04C236.892 53.2453 237.302 53.404 237.76 53.516C238.217 53.628 238.674 53.684 239.132 53.684C239.72 53.684 240.177 53.5953 240.504 53.418C240.84 53.2313 241.008 52.9793 241.008 52.662C241.008 52.3727 240.877 52.1487 240.616 51.99C240.364 51.8313 240.004 51.752 239.538 51.752H238.082V50.576H239.398C239.836 50.576 240.177 50.5013 240.42 50.352C240.672 50.2027 240.798 49.9927 240.798 49.722C240.798 49.4513 240.648 49.2367 240.35 49.078C240.051 48.9193 239.64 48.84 239.118 48.84C238.371 48.84 237.582 49.022 236.752 49.386L236.304 48.098C237.284 47.6407 238.273 47.412 239.272 47.412C239.906 47.412 240.476 47.5007 240.98 47.678C241.484 47.846 241.876 48.0887 242.156 48.406C242.445 48.714 242.59 49.0687 242.59 49.47C242.59 49.834 242.478 50.1607 242.254 50.45C242.03 50.73 241.722 50.9493 241.33 51.108ZM247.401 47.44C248.503 47.44 249.343 47.706 249.921 48.238C250.509 48.7607 250.803 49.554 250.803 50.618V55H249.151V54.09C248.937 54.4167 248.629 54.6687 248.227 54.846C247.835 55.014 247.359 55.098 246.799 55.098C246.239 55.098 245.749 55.0047 245.329 54.818C244.909 54.622 244.583 54.356 244.349 54.02C244.125 53.6747 244.013 53.2873 244.013 52.858C244.013 52.186 244.261 51.6493 244.755 51.248C245.259 50.8373 246.048 50.632 247.121 50.632H249.053V50.52C249.053 49.9973 248.895 49.596 248.577 49.316C248.269 49.036 247.807 48.896 247.191 48.896C246.771 48.896 246.356 48.9613 245.945 49.092C245.544 49.2227 245.203 49.4047 244.923 49.638L244.237 48.364C244.629 48.0653 245.101 47.8367 245.651 47.678C246.202 47.5193 246.785 47.44 247.401 47.44ZM247.163 53.824C247.602 53.824 247.989 53.726 248.325 53.53C248.671 53.3247 248.913 53.0353 249.053 52.662V51.794H247.247C246.239 51.794 245.735 52.1253 245.735 52.788C245.735 53.1053 245.861 53.3573 246.113 53.544C246.365 53.7307 246.715 53.824 247.163 53.824ZM256.077 52.004H254.719V55H252.969V47.524H254.719V50.548H256.119L258.331 47.524H260.207L257.491 51.122L260.389 55H258.331L256.077 52.004ZM264.273 47.44C265.374 47.44 266.214 47.706 266.793 48.238C267.381 48.7607 267.675 49.554 267.675 50.618V55H266.023V54.09C265.808 54.4167 265.5 54.6687 265.099 54.846C264.707 55.014 264.231 55.098 263.671 55.098C263.111 55.098 262.621 55.0047 262.201 54.818C261.781 54.622 261.454 54.356 261.221 54.02C260.997 53.6747 260.885 53.2873 260.885 52.858C260.885 52.186 261.132 51.6493 261.627 51.248C262.131 50.8373 262.919 50.632 263.993 50.632H265.925V50.52C265.925 49.9973 265.766 49.596 265.449 49.316C265.141 49.036 264.679 48.896 264.063 48.896C263.643 48.896 263.227 48.9613 262.817 49.092C262.415 49.2227 262.075 49.4047 261.795 49.638L261.109 48.364C261.501 48.0653 261.972 47.8367 262.523 47.678C263.073 47.5193 263.657 47.44 264.273 47.44ZM264.035 53.824C264.473 53.824 264.861 53.726 265.197 53.53C265.542 53.3247 265.785 53.0353 265.925 52.662V51.794H264.119C263.111 51.794 262.607 52.1253 262.607 52.788C262.607 53.1053 262.733 53.3573 262.985 53.544C263.237 53.7307 263.587 53.824 264.035 53.824ZM274.21 51.108C274.677 51.2387 275.036 51.4533 275.288 51.752C275.55 52.0413 275.68 52.3913 275.68 52.802C275.68 53.2593 275.526 53.6653 275.218 54.02C274.91 54.3653 274.486 54.636 273.944 54.832C273.403 55.028 272.787 55.126 272.096 55.126C271.518 55.126 270.953 55.0607 270.402 54.93C269.852 54.79 269.352 54.594 268.904 54.342L269.408 53.04C269.772 53.2453 270.183 53.404 270.64 53.516C271.098 53.628 271.555 53.684 272.012 53.684C272.6 53.684 273.058 53.5953 273.384 53.418C273.72 53.2313 273.888 52.9793 273.888 52.662C273.888 52.3727 273.758 52.1487 273.496 51.99C273.244 51.8313 272.885 51.752 272.418 51.752H270.962V50.576H272.278C272.717 50.576 273.058 50.5013 273.3 50.352C273.552 50.2027 273.678 49.9927 273.678 49.722C273.678 49.4513 273.529 49.2367 273.23 49.078C272.932 48.9193 272.521 48.84 271.998 48.84C271.252 48.84 270.463 49.022 269.632 49.386L269.184 48.098C270.164 47.6407 271.154 47.412 272.152 47.412C272.787 47.412 273.356 47.5007 273.86 47.678C274.364 47.846 274.756 48.0887 275.036 48.406C275.326 48.714 275.47 49.0687 275.47 49.47C275.47 49.834 275.358 50.1607 275.134 50.45C274.91 50.73 274.602 50.9493 274.21 51.108ZM280.282 47.44C281.384 47.44 282.224 47.706 282.802 48.238C283.39 48.7607 283.684 49.554 283.684 50.618V55H282.032V54.09C281.818 54.4167 281.51 54.6687 281.108 54.846C280.716 55.014 280.24 55.098 279.68 55.098C279.12 55.098 278.63 55.0047 278.21 54.818C277.79 54.622 277.464 54.356 277.23 54.02C277.006 53.6747 276.894 53.2873 276.894 52.858C276.894 52.186 277.142 51.6493 277.636 51.248C278.14 50.8373 278.929 50.632 280.002 50.632H281.934V50.52C281.934 49.9973 281.776 49.596 281.458 49.316C281.15 49.036 280.688 48.896 280.072 48.896C279.652 48.896 279.237 48.9613 278.826 49.092C278.425 49.2227 278.084 49.4047 277.804 49.638L277.118 48.364C277.51 48.0653 277.982 47.8367 278.532 47.678C279.083 47.5193 279.666 47.44 280.282 47.44ZM280.044 53.824C280.483 53.824 280.87 53.726 281.206 53.53C281.552 53.3247 281.794 53.0353 281.934 52.662V51.794H280.128C279.12 51.794 278.616 52.1253 278.616 52.788C278.616 53.1053 278.742 53.3573 278.994 53.544C279.246 53.7307 279.596 53.824 280.044 53.824Z" fill="#0E0C0D" fill-opacity="0.8"/>
<g opacity="0.6">
<circle cx="384" cy="18" r="17" stroke="#FF2E65" stroke-width="2"/>
<path d="M385.49 16.775C386.41 16.925 387.115 17.27 387.605 17.81C388.095 18.34 388.34 19 388.34 19.79C388.34 20.4 388.18 20.965 387.86 21.485C387.54 21.995 387.05 22.405 386.39 22.715C385.74 23.025 384.94 23.18 383.99 23.18C383.25 23.18 382.52 23.085 381.8 22.895C381.09 22.695 380.485 22.415 379.985 22.055L380.93 20.195C381.33 20.495 381.79 20.73 382.31 20.9C382.84 21.06 383.38 21.14 383.93 21.14C384.54 21.14 385.02 21.025 385.37 20.795C385.72 20.555 385.895 20.22 385.895 19.79C385.895 18.93 385.24 18.5 383.93 18.5H382.82V16.895L384.98 14.45H380.51V12.5H387.86V14.075L385.49 16.775Z" fill="#FF2E65"/>
</g>
<path opacity="0.6" d="M340.524 49.89C341.112 50.0767 341.569 50.38 341.896 50.8C342.232 51.2107 342.4 51.696 342.4 52.256C342.4 52.844 342.209 53.3573 341.826 53.796C341.443 54.2253 340.93 54.5567 340.286 54.79C339.651 55.0233 338.956 55.14 338.2 55.14C337.547 55.14 336.889 55.0513 336.226 54.874C335.573 54.6873 334.966 54.412 334.406 54.048L334.994 52.718C335.423 53.0073 335.899 53.2313 336.422 53.39C336.945 53.5393 337.463 53.614 337.976 53.614C338.713 53.614 339.325 53.4693 339.81 53.18C340.305 52.8907 340.552 52.494 340.552 51.99C340.552 51.5607 340.375 51.234 340.02 51.01C339.665 50.786 339.175 50.674 338.55 50.674H336.268V49.246H338.41C338.951 49.246 339.376 49.134 339.684 48.91C339.992 48.686 340.146 48.3827 340.146 48C340.146 47.5427 339.936 47.188 339.516 46.936C339.105 46.684 338.578 46.558 337.934 46.558C337.495 46.558 337.043 46.6233 336.576 46.754C336.109 46.8753 335.671 47.0573 335.26 47.3L334.686 45.83C335.19 45.5593 335.722 45.3587 336.282 45.228C336.851 45.088 337.416 45.018 337.976 45.018C338.704 45.018 339.371 45.13 339.978 45.354C340.594 45.578 341.084 45.9 341.448 46.32C341.812 46.7307 341.994 47.216 341.994 47.776C341.994 48.2613 341.863 48.686 341.602 49.05C341.341 49.414 340.981 49.694 340.524 49.89ZM347.054 47.44C348.155 47.44 348.995 47.706 349.574 48.238C350.162 48.7607 350.456 49.554 350.456 50.618V55H348.804V54.09C348.589 54.4167 348.281 54.6687 347.88 54.846C347.488 55.014 347.012 55.098 346.452 55.098C345.892 55.098 345.402 55.0047 344.982 54.818C344.562 54.622 344.235 54.356 344.002 54.02C343.778 53.6747 343.666 53.2873 343.666 52.858C343.666 52.186 343.913 51.6493 344.408 51.248C344.912 50.8373 345.7 50.632 346.774 50.632H348.706V50.52C348.706 49.9973 348.547 49.596 348.23 49.316C347.922 49.036 347.46 48.896 346.844 48.896C346.424 48.896 346.008 48.9613 345.598 49.092C345.196 49.2227 344.856 49.4047 344.576 49.638L343.89 48.364C344.282 48.0653 344.753 47.8367 345.304 47.678C345.854 47.5193 346.438 47.44 347.054 47.44ZM346.816 53.824C347.254 53.824 347.642 53.726 347.978 53.53C348.323 53.3247 348.566 53.0353 348.706 52.662V51.794H346.9C345.892 51.794 345.388 52.1253 345.388 52.788C345.388 53.1053 345.514 53.3573 345.766 53.544C346.018 53.7307 346.368 53.824 346.816 53.824ZM355.729 52.004H354.371V55H352.621V47.524H354.371V50.548H355.771L357.983 47.524H359.859L357.143 51.122L360.041 55H357.983L355.729 52.004ZM363.925 47.44C365.026 47.44 365.866 47.706 366.445 48.238C367.033 48.7607 367.327 49.554 367.327 50.618V55H365.675V54.09C365.46 54.4167 365.152 54.6687 364.751 54.846C364.359 55.014 363.883 55.098 363.323 55.098C362.763 55.098 362.273 55.0047 361.853 54.818C361.433 54.622 361.106 54.356 360.873 54.02C360.649 53.6747 360.537 53.2873 360.537 52.858C360.537 52.186 360.784 51.6493 361.279 51.248C361.783 50.8373 362.572 50.632 363.645 50.632H365.577V50.52C365.577 49.9973 365.418 49.596 365.101 49.316C364.793 49.036 364.331 48.896 363.715 48.896C363.295 48.896 362.88 48.9613 362.469 49.092C362.068 49.2227 361.727 49.4047 361.447 49.638L360.761 48.364C361.153 48.0653 361.624 47.8367 362.175 47.678C362.726 47.5193 363.309 47.44 363.925 47.44ZM363.687 53.824C364.126 53.824 364.513 53.726 364.849 53.53C365.194 53.3247 365.437 53.0353 365.577 52.662V51.794H363.771C362.763 51.794 362.259 52.1253 362.259 52.788C362.259 53.1053 362.385 53.3573 362.637 53.544C362.889 53.7307 363.239 53.824 363.687 53.824ZM373.863 51.108C374.329 51.2387 374.689 51.4533 374.941 51.752C375.202 52.0413 375.333 52.3913 375.333 52.802C375.333 53.2593 375.179 53.6653 374.871 54.02C374.563 54.3653 374.138 54.636 373.597 54.832C373.055 55.028 372.439 55.126 371.749 55.126C371.17 55.126 370.605 55.0607 370.055 54.93C369.504 54.79 369.005 54.594 368.557 54.342L369.061 53.04C369.425 53.2453 369.835 53.404 370.293 53.516C370.75 53.628 371.207 53.684 371.665 53.684C372.253 53.684 372.71 53.5953 373.037 53.418C373.373 53.2313 373.541 52.9793 373.541 52.662C373.541 52.3727 373.41 52.1487 373.149 51.99C372.897 51.8313 372.537 51.752 372.071 51.752H370.615V50.576H371.931C372.369 50.576 372.71 50.5013 372.953 50.352C373.205 50.2027 373.331 49.9927 373.331 49.722C373.331 49.4513 373.181 49.2367 372.883 49.078C372.584 48.9193 372.173 48.84 371.651 48.84C370.904 48.84 370.115 49.022 369.285 49.386L368.837 48.098C369.817 47.6407 370.806 47.412 371.805 47.412C372.439 47.412 373.009 47.5007 373.513 47.678C374.017 47.846 374.409 48.0887 374.689 48.406C374.978 48.714 375.123 49.0687 375.123 49.47C375.123 49.834 375.011 50.1607 374.787 50.45C374.563 50.73 374.255 50.9493 373.863 51.108ZM388.186 47.524V55H386.45V49.008H382.768V55H381.018V47.524H388.186ZM394.691 47.44C395.419 47.44 396.068 47.5987 396.637 47.916C397.216 48.2333 397.668 48.6813 397.995 49.26C398.322 49.8387 398.485 50.506 398.485 51.262C398.485 52.018 398.322 52.69 397.995 53.278C397.668 53.8567 397.216 54.3047 396.637 54.622C396.068 54.9393 395.419 55.098 394.691 55.098C393.683 55.098 392.885 54.762 392.297 54.09V57.716H390.547V47.524H392.213V48.504C392.502 48.1493 392.857 47.8833 393.277 47.706C393.706 47.5287 394.178 47.44 394.691 47.44ZM394.495 53.6C395.139 53.6 395.666 53.3853 396.077 52.956C396.497 52.5267 396.707 51.962 396.707 51.262C396.707 50.562 396.497 49.9973 396.077 49.568C395.666 49.1387 395.139 48.924 394.495 48.924C394.075 48.924 393.697 49.022 393.361 49.218C393.025 49.4047 392.759 49.6753 392.563 50.03C392.367 50.3847 392.269 50.7953 392.269 51.262C392.269 51.7287 392.367 52.1393 392.563 52.494C392.759 52.8487 393.025 53.124 393.361 53.32C393.697 53.5067 394.075 53.6 394.495 53.6ZM400.227 47.524H401.977V52.452L406.107 47.524H407.703V55H405.953V50.072L401.837 55H400.227V47.524ZM410.057 47.524H411.807V50.562H415.573V47.524H417.323V55H415.573V52.046H411.807V55H410.057V47.524ZM425.982 47.524V55H424.414V52.746H422.44L420.914 55H419.038L420.802 52.508C420.261 52.3213 419.846 52.0367 419.556 51.654C419.276 51.262 419.136 50.7813 419.136 50.212C419.136 49.3533 419.44 48.6907 420.046 48.224C420.653 47.7573 421.488 47.524 422.552 47.524H425.982ZM422.608 48.994C421.479 48.994 420.914 49.4187 420.914 50.268C420.914 51.108 421.46 51.528 422.552 51.528H424.414V48.994H422.608ZM434.258 49.008H431.64V55H429.89V49.008H427.258V47.524H434.258V49.008Z" fill="#0E0C0D" fill-opacity="0.8"/>
<line x1="70" y1="21" x2="170" y2="21" stroke="#B8C5D0" stroke-width="2" stroke-linecap="round" stroke-dasharray="2 6"/>
<line x1="246" y1="17" x2="346" y2="17" stroke="#B8C5D0" stroke-width="2" stroke-linecap="round" stroke-dasharray="2 6"/>
</svg>
