<svg width="130" height="30" viewBox="0 0 130 30" fill="none" xmlns="http://www.w3.org/2000/svg">
<path d="M25.336 1.31H21.943C20.071 1.31 19.564 1.349 18.823 2.714L13.87 11.801L8.995 2.714C8.293 1.349 7.786 1.31 5.914 1.31H2.287C1.117 1.31 0.961 2.012 1.468 2.909L10.633 18.158V27.401C10.633 28.61 11.023 29 12.232 29H15.391C16.561 29 16.99 28.61 16.99 27.401V18.236L26.155 2.909C26.662 2.012 26.506 1.31 25.336 1.31ZM48.5949 27.44L39.2739 2.558C38.9229 1.544 38.4159 1.31 37.3239 1.31H34.3209C33.2289 1.31 32.7609 1.544 32.3709 2.636L23.0499 27.44C22.6599 28.493 22.9329 29 24.1029 29H26.7939C28.7439 29 29.2509 28.688 29.6409 27.557L30.8889 23.891H40.5219L41.7309 27.557C42.0819 28.688 42.6669 29 44.6169 29H47.5419C48.6729 29 48.9849 28.493 48.5949 27.44ZM36.8559 12.698L38.8839 18.743H32.5659L34.5939 12.659C35.5299 9.89 35.4909 7.121 35.4909 7.121H35.8809C35.8809 7.121 35.9589 9.89 36.8559 12.698ZM69.9916 1.31H59.0326C57.8626 1.31 57.4336 1.7 57.4336 2.909V27.401C57.4336 28.61 57.8626 29 59.0326 29H70.1476C75.4516 29 79.3516 26.27 79.3516 21.317C79.3516 17.885 77.9866 15.623 75.6076 14.609V14.453C77.5186 13.127 78.2986 11.333 78.2986 8.681C78.2986 3.962 75.1786 1.31 69.9916 1.31ZM71.8636 9.578C71.8636 11.411 70.8496 12.23 69.0166 12.23H63.7906V6.926H69.0166C70.8496 6.926 71.8636 7.784 71.8636 9.578ZM72.6826 20.576C72.6826 22.487 71.7076 23.384 69.7576 23.384H63.7906V17.729H69.7576C71.7076 17.729 72.6826 18.704 72.6826 20.576ZM105.506 27.44L96.185 2.558C95.834 1.544 95.327 1.31 94.235 1.31H91.232C90.14 1.31 89.672 1.544 89.282 2.636L79.961 27.44C79.571 28.493 79.844 29 81.014 29H83.705C85.655 29 86.162 28.688 86.552 27.557L87.8 23.891H97.433L98.642 27.557C98.993 28.688 99.578 29 101.528 29H104.453C105.584 29 105.896 28.493 105.506 27.44ZM93.767 12.698L95.795 18.743H89.477L91.505 12.659C92.441 9.89 92.402 7.121 92.402 7.121H92.792C92.792 7.121 92.87 9.89 93.767 12.698ZM106.262 11.216V19.094C106.262 25.568 110.396 29.585 117.767 29.585C125.177 29.585 129.311 25.568 129.311 19.094V11.216C129.311 4.742 125.177 0.724999 117.767 0.724999C110.396 0.724999 106.262 4.742 106.262 11.216ZM122.954 11.099V19.211C122.954 22.253 121.082 23.774 117.767 23.774C114.491 23.774 112.619 22.253 112.619 19.211V11.099C112.619 8.057 114.491 6.536 117.767 6.536C121.082 6.536 122.954 8.057 122.954 11.099Z" fill="#231F20"/>
</svg>
