<svg width="126" height="36" viewBox="0 0 126 36" fill="none" xmlns="http://www.w3.org/2000/svg">
<rect width="126" height="36" rx="8" fill="#FF2E65"/>
<path d="M32.008 17.89C32.6053 18.0673 33.0627 18.3567 33.38 18.758C33.6973 19.1593 33.856 19.654 33.856 20.242C33.856 21.11 33.5247 21.7867 32.862 22.272C32.2087 22.7573 31.2707 23 30.048 23H25.218V13.2H29.782C30.9207 13.2 31.8073 13.4193 32.442 13.858C33.0767 14.2967 33.394 14.922 33.394 15.734C33.394 16.2193 33.2727 16.6487 33.03 17.022C32.7873 17.386 32.4467 17.6753 32.008 17.89ZM27.472 17.26H29.586C30.0807 17.26 30.454 17.162 30.706 16.966C30.958 16.7607 31.084 16.462 31.084 16.07C31.084 15.6873 30.9533 15.3933 30.692 15.188C30.44 14.9827 30.0713 14.88 29.586 14.88H27.472V17.26ZM29.964 21.32C31.028 21.32 31.56 20.9 31.56 20.06C31.56 19.248 31.028 18.842 29.964 18.842H27.472V21.32H29.964ZM42.7645 20.144H41.6305V23H39.4465V15.468H41.6305V18.394H42.8065L44.8505 15.468H47.1745L44.5425 19.08L47.3565 23H44.7805L42.7645 20.144ZM51.7245 23.112C50.9312 23.112 50.2172 22.9487 49.5825 22.622C48.9572 22.286 48.4672 21.824 48.1125 21.236C47.7578 20.648 47.5805 19.9807 47.5805 19.234C47.5805 18.4873 47.7578 17.82 48.1125 17.232C48.4672 16.644 48.9572 16.1867 49.5825 15.86C50.2172 15.524 50.9312 15.356 51.7245 15.356C52.5178 15.356 53.2272 15.524 53.8525 15.86C54.4778 16.1867 54.9678 16.644 55.3225 17.232C55.6772 17.82 55.8545 18.4873 55.8545 19.234C55.8545 19.9807 55.6772 20.648 55.3225 21.236C54.9678 21.824 54.4778 22.286 53.8525 22.622C53.2272 22.9487 52.5178 23.112 51.7245 23.112ZM51.7245 21.32C52.2845 21.32 52.7418 21.1333 53.0965 20.76C53.4605 20.3773 53.6425 19.8687 53.6425 19.234C53.6425 18.5993 53.4605 18.0953 53.0965 17.722C52.7418 17.3393 52.2845 17.148 51.7245 17.148C51.1645 17.148 50.7025 17.3393 50.3385 17.722C49.9745 18.0953 49.7925 18.5993 49.7925 19.234C49.7925 19.8687 49.9745 20.3773 50.3385 20.76C50.7025 21.1333 51.1645 21.32 51.7245 21.32ZM61.7946 15.356C62.4946 15.356 63.1293 15.5193 63.6986 15.846C64.2773 16.1633 64.73 16.616 65.0566 17.204C65.3833 17.7827 65.5466 18.4593 65.5466 19.234C65.5466 20.0087 65.3833 20.69 65.0566 21.278C64.73 21.8567 64.2773 22.3093 63.6986 22.636C63.1293 22.9533 62.4946 23.112 61.7946 23.112C60.8333 23.112 60.0773 22.8087 59.5266 22.202V25.716H57.3426V15.468H59.4286V16.336C59.97 15.6827 60.7586 15.356 61.7946 15.356ZM61.4166 21.32C61.9766 21.32 62.434 21.1333 62.7886 20.76C63.1526 20.3773 63.3346 19.8687 63.3346 19.234C63.3346 18.5993 63.1526 18.0953 62.7886 17.722C62.434 17.3393 61.9766 17.148 61.4166 17.148C60.8566 17.148 60.3946 17.3393 60.0306 17.722C59.676 18.0953 59.4986 18.5993 59.4986 19.234C59.4986 19.8687 59.676 20.3773 60.0306 20.76C60.3946 21.1333 60.8566 21.32 61.4166 21.32ZM71.8266 19.08C72.2746 19.22 72.62 19.4347 72.8626 19.724C73.1146 20.0133 73.2406 20.3587 73.2406 20.76C73.2406 21.236 73.0773 21.656 72.7506 22.02C72.424 22.3747 71.976 22.65 71.4066 22.846C70.8373 23.042 70.1933 23.14 69.4746 23.14C68.8866 23.14 68.308 23.0793 67.7386 22.958C67.1693 22.8367 66.642 22.6547 66.1566 22.412L66.7446 20.886C67.538 21.2687 68.4153 21.46 69.3766 21.46C69.89 21.46 70.2913 21.3853 70.5806 21.236C70.8793 21.0773 71.0286 20.858 71.0286 20.578C71.0286 20.3353 70.926 20.1533 70.7206 20.032C70.5153 19.9013 70.2166 19.836 69.8246 19.836H68.2846V18.478H69.6286C70.0113 18.478 70.3053 18.4173 70.5106 18.296C70.716 18.1747 70.8186 17.9973 70.8186 17.764C70.8186 17.5213 70.688 17.3347 70.4266 17.204C70.1746 17.0733 69.8106 17.008 69.3346 17.008C68.6066 17.008 67.8133 17.1807 66.9546 17.526L66.4226 16.014C67.468 15.5567 68.4853 15.328 69.4746 15.328C70.156 15.328 70.7626 15.412 71.2946 15.58C71.836 15.748 72.2606 15.9953 72.5686 16.322C72.8766 16.6393 73.0306 17.0127 73.0306 17.442C73.0306 17.7967 72.9233 18.1187 72.7086 18.408C72.494 18.688 72.2 18.912 71.8266 19.08ZM74.8293 15.468H76.9993V19.948L80.6673 15.468H82.6693V23H80.4993V18.52L76.8453 23H74.8293V15.468ZM84.7688 15.468H86.9388V18.408H90.2148V15.468H92.3988V23H90.2148V20.186H86.9388V23H84.7688V15.468ZM102.035 15.468L98.6335 23.462C98.2881 24.33 97.8588 24.9413 97.3455 25.296C96.8415 25.6507 96.2301 25.828 95.5115 25.828C95.1195 25.828 94.7321 25.7673 94.3495 25.646C93.9668 25.5247 93.6541 25.3567 93.4115 25.142L94.2095 23.588C94.3775 23.7373 94.5688 23.854 94.7835 23.938C95.0075 24.022 95.2268 24.064 95.4415 24.064C95.7401 24.064 95.9828 23.9893 96.1695 23.84C96.3561 23.7 96.5241 23.462 96.6735 23.126L96.7015 23.056L93.4395 15.468H95.6935L97.8075 20.578L99.9355 15.468H102.035Z" fill="white"/>
</svg>
